<mxfile host="app.diagrams.net" modified="2023-09-13T05:07:15.130Z" agent="Mozilla/5.0 (Windows NT 10.0; Win64; x64) AppleWebKit/537.36 (KHTML, like Gecko) Chrome/116.0.0.0 Safari/537.36" etag="Uft9Nao-eqNmIXEaiy2q" version="21.7.4" type="device">
  <diagram name="Page-1" id="yMK80l3Wt2wT6v33H4k4">
    <mxGraphModel dx="1050" dy="534" grid="1" gridSize="10" guides="1" tooltips="1" connect="1" arrows="1" fold="1" page="1" pageScale="1" pageWidth="850" pageHeight="1100" math="0" shadow="0">
      <root>
        <mxCell id="0" />
        <mxCell id="1" parent="0" />
        <mxCell id="D5B2wI8S7RxFzX2RK0xU-1" value="&lt;font style=&quot;font-size: 18px;&quot;&gt;Staff&lt;/font&gt;" style="rounded=0;whiteSpace=wrap;html=1;fillColor=#ffe6cc;strokeColor=#d79b00;" parent="1" vertex="1">
          <mxGeometry x="295" y="170" width="100" height="30" as="geometry" />
        </mxCell>
        <mxCell id="D5B2wI8S7RxFzX2RK0xU-3" value="" style="endArrow=none;html=1;rounded=0;entryX=0.5;entryY=1;entryDx=0;entryDy=0;exitX=1;exitY=0.5;exitDx=0;exitDy=0;" parent="1" source="D5B2wI8S7RxFzX2RK0xU-24" target="D5B2wI8S7RxFzX2RK0xU-1" edge="1">
          <mxGeometry width="50" height="50" relative="1" as="geometry">
            <mxPoint x="339.6400000000001" y="246.96000000000004" as="sourcePoint" />
            <mxPoint x="470" y="320" as="targetPoint" />
          </mxGeometry>
        </mxCell>
        <mxCell id="D5B2wI8S7RxFzX2RK0xU-5" value="SSN" style="ellipse;whiteSpace=wrap;html=1;align=center;fontStyle=4;fillColor=#d5e8d4;strokeColor=#82b366;" parent="1" vertex="1">
          <mxGeometry x="450" y="150" width="100" height="40" as="geometry" />
        </mxCell>
        <mxCell id="D5B2wI8S7RxFzX2RK0xU-8" value="" style="endArrow=none;html=1;rounded=0;exitX=1;exitY=0.5;exitDx=0;exitDy=0;entryX=0;entryY=0.5;entryDx=0;entryDy=0;" parent="1" source="D5B2wI8S7RxFzX2RK0xU-1" target="D5B2wI8S7RxFzX2RK0xU-5" edge="1">
          <mxGeometry relative="1" as="geometry">
            <mxPoint x="330" y="300" as="sourcePoint" />
            <mxPoint x="490" y="300" as="targetPoint" />
          </mxGeometry>
        </mxCell>
        <mxCell id="D5B2wI8S7RxFzX2RK0xU-9" value="Name" style="ellipse;whiteSpace=wrap;html=1;align=center;fillColor=#d5e8d4;strokeColor=#82b366;" parent="1" vertex="1">
          <mxGeometry x="450" y="210" width="100" height="40" as="geometry" />
        </mxCell>
        <mxCell id="D5B2wI8S7RxFzX2RK0xU-10" value="" style="endArrow=none;html=1;rounded=0;exitX=1;exitY=0.5;exitDx=0;exitDy=0;entryX=0;entryY=0.5;entryDx=0;entryDy=0;" parent="1" source="D5B2wI8S7RxFzX2RK0xU-1" target="D5B2wI8S7RxFzX2RK0xU-9" edge="1">
          <mxGeometry relative="1" as="geometry">
            <mxPoint x="420" y="210" as="sourcePoint" />
            <mxPoint x="490" y="190" as="targetPoint" />
          </mxGeometry>
        </mxCell>
        <mxCell id="D5B2wI8S7RxFzX2RK0xU-12" value="" style="endArrow=none;html=1;rounded=0;exitX=0;exitY=0.75;exitDx=0;exitDy=0;entryX=0.5;entryY=0;entryDx=0;entryDy=0;" parent="1" source="D5B2wI8S7RxFzX2RK0xU-24" target="D5B2wI8S7RxFzX2RK0xU-15" edge="1">
          <mxGeometry relative="1" as="geometry">
            <mxPoint x="400" y="290" as="sourcePoint" />
            <mxPoint x="420" y="360" as="targetPoint" />
          </mxGeometry>
        </mxCell>
        <mxCell id="D5B2wI8S7RxFzX2RK0xU-13" value="" style="endArrow=none;html=1;rounded=0;entryX=0;entryY=0.25;entryDx=0;entryDy=0;exitX=0.5;exitY=0;exitDx=0;exitDy=0;" parent="1" source="D5B2wI8S7RxFzX2RK0xU-14" target="D5B2wI8S7RxFzX2RK0xU-24" edge="1">
          <mxGeometry relative="1" as="geometry">
            <mxPoint x="280" y="360" as="sourcePoint" />
            <mxPoint x="340" y="290" as="targetPoint" />
          </mxGeometry>
        </mxCell>
        <mxCell id="D5B2wI8S7RxFzX2RK0xU-14" value="&lt;font style=&quot;font-size: 18px;&quot;&gt;Salaried&lt;/font&gt;" style="whiteSpace=wrap;html=1;align=center;fillColor=#ffe6cc;strokeColor=#d79b00;" parent="1" vertex="1">
          <mxGeometry x="200" y="320" width="90" height="30" as="geometry" />
        </mxCell>
        <mxCell id="D5B2wI8S7RxFzX2RK0xU-15" value="&lt;font style=&quot;font-size: 18px;&quot;&gt;Contract&lt;/font&gt;" style="whiteSpace=wrap;html=1;align=center;fillColor=#ffe6cc;strokeColor=#d79b00;" parent="1" vertex="1">
          <mxGeometry x="410" y="320" width="90" height="30" as="geometry" />
        </mxCell>
        <mxCell id="D5B2wI8S7RxFzX2RK0xU-16" value="Yearly Salary" style="ellipse;whiteSpace=wrap;html=1;align=center;fillColor=#d5e8d4;strokeColor=#82b366;" parent="1" vertex="1">
          <mxGeometry x="140" y="370" width="90" height="40" as="geometry" />
        </mxCell>
        <mxCell id="D5B2wI8S7RxFzX2RK0xU-17" value="Department" style="ellipse;whiteSpace=wrap;html=1;align=center;fillColor=#d5e8d4;strokeColor=#82b366;" parent="1" vertex="1">
          <mxGeometry x="240" y="370" width="100" height="40" as="geometry" />
        </mxCell>
        <mxCell id="D5B2wI8S7RxFzX2RK0xU-18" value="" style="endArrow=none;html=1;rounded=0;exitX=0.5;exitY=0;exitDx=0;exitDy=0;entryX=0.5;entryY=1;entryDx=0;entryDy=0;" parent="1" source="D5B2wI8S7RxFzX2RK0xU-16" target="D5B2wI8S7RxFzX2RK0xU-14" edge="1">
          <mxGeometry relative="1" as="geometry">
            <mxPoint x="90" y="460" as="sourcePoint" />
            <mxPoint x="205" y="410" as="targetPoint" />
          </mxGeometry>
        </mxCell>
        <mxCell id="D5B2wI8S7RxFzX2RK0xU-19" value="" style="endArrow=none;html=1;rounded=0;exitX=0.5;exitY=0;exitDx=0;exitDy=0;entryX=0.5;entryY=1;entryDx=0;entryDy=0;" parent="1" source="D5B2wI8S7RxFzX2RK0xU-17" target="D5B2wI8S7RxFzX2RK0xU-14" edge="1">
          <mxGeometry relative="1" as="geometry">
            <mxPoint x="175" y="440" as="sourcePoint" />
            <mxPoint x="230" y="400" as="targetPoint" />
          </mxGeometry>
        </mxCell>
        <mxCell id="D5B2wI8S7RxFzX2RK0xU-20" value="" style="endArrow=none;html=1;rounded=0;entryX=0.5;entryY=1;entryDx=0;entryDy=0;exitX=0.5;exitY=0;exitDx=0;exitDy=0;" parent="1" source="D5B2wI8S7RxFzX2RK0xU-23" target="D5B2wI8S7RxFzX2RK0xU-15" edge="1">
          <mxGeometry relative="1" as="geometry">
            <mxPoint x="580" y="440" as="sourcePoint" />
            <mxPoint x="550" y="400" as="targetPoint" />
          </mxGeometry>
        </mxCell>
        <mxCell id="D5B2wI8S7RxFzX2RK0xU-21" value="" style="endArrow=none;html=1;rounded=0;entryX=0.5;entryY=1;entryDx=0;entryDy=0;exitX=0.5;exitY=0;exitDx=0;exitDy=0;" parent="1" source="D5B2wI8S7RxFzX2RK0xU-22" target="D5B2wI8S7RxFzX2RK0xU-15" edge="1">
          <mxGeometry relative="1" as="geometry">
            <mxPoint x="500" y="440" as="sourcePoint" />
            <mxPoint x="540" y="400" as="targetPoint" />
          </mxGeometry>
        </mxCell>
        <mxCell id="D5B2wI8S7RxFzX2RK0xU-22" value="No. of hours" style="ellipse;whiteSpace=wrap;html=1;align=center;fillColor=#d5e8d4;strokeColor=#82b366;" parent="1" vertex="1">
          <mxGeometry x="360" y="380" width="100" height="40" as="geometry" />
        </mxCell>
        <mxCell id="D5B2wI8S7RxFzX2RK0xU-23" value="Hourly Rate" style="ellipse;whiteSpace=wrap;html=1;align=center;fillColor=#d5e8d4;strokeColor=#82b366;" parent="1" vertex="1">
          <mxGeometry x="480" y="400" width="100" height="40" as="geometry" />
        </mxCell>
        <mxCell id="D5B2wI8S7RxFzX2RK0xU-24" value="" style="triangle;whiteSpace=wrap;html=1;rotation=-90;fillColor=#dae8fc;strokeColor=#6c8ebf;" parent="1" vertex="1">
          <mxGeometry x="315" y="230" width="60" height="80" as="geometry" />
        </mxCell>
        <mxCell id="D5B2wI8S7RxFzX2RK0xU-25" value="IS A" style="text;html=1;align=center;verticalAlign=middle;whiteSpace=wrap;rounded=0;" parent="1" vertex="1">
          <mxGeometry x="315" y="260" width="60" height="30" as="geometry" />
        </mxCell>
        <mxCell id="D5B2wI8S7RxFzX2RK0xU-26" value="Project No" style="ellipse;whiteSpace=wrap;html=1;align=center;fillColor=#d5e8d4;strokeColor=#82b366;" parent="1" vertex="1">
          <mxGeometry x="550" y="350" width="100" height="40" as="geometry" />
        </mxCell>
        <mxCell id="D5B2wI8S7RxFzX2RK0xU-27" value="" style="endArrow=none;html=1;rounded=0;entryX=0.5;entryY=1;entryDx=0;entryDy=0;exitX=0;exitY=0.5;exitDx=0;exitDy=0;" parent="1" source="D5B2wI8S7RxFzX2RK0xU-26" target="D5B2wI8S7RxFzX2RK0xU-15" edge="1">
          <mxGeometry relative="1" as="geometry">
            <mxPoint x="540" y="410" as="sourcePoint" />
            <mxPoint x="445" y="370" as="targetPoint" />
          </mxGeometry>
        </mxCell>
        <mxCell id="D5B2wI8S7RxFzX2RK0xU-28" value="&lt;h1&gt;Solution 1:&lt;br&gt;&lt;/h1&gt;" style="text;html=1;strokeColor=#b85450;fillColor=#f8cecc;spacing=5;spacingTop=-20;whiteSpace=wrap;overflow=hidden;rounded=0;" parent="1" vertex="1">
          <mxGeometry x="50" y="50" width="140" height="40" as="geometry" />
        </mxCell>
        <mxCell id="D5B2wI8S7RxFzX2RK0xU-29" value="&lt;h1&gt;Adhiraj Budukh&lt;br&gt;abudukh@wpi.edu&lt;/h1&gt;" style="text;html=1;strokeColor=#666666;fillColor=#f5f5f5;spacing=5;spacingTop=-20;whiteSpace=wrap;overflow=hidden;rounded=0;fontColor=#333333;" parent="1" vertex="1">
          <mxGeometry x="580" y="30" width="240" height="60" as="geometry" />
        </mxCell>
      </root>
    </mxGraphModel>
  </diagram>
</mxfile>
